<svg xmlns="http://www.w3.org/2000/svg" width="130" height="140" shape-rendering="geometricPrecision" fill-rule="evenodd"><path fill="#FFB128" d="M43.96 2.26L44.44.6l6.69-.02L77.89.46l6.69-.03.5 1.5c.49 1.51 1.48 4.52 2.75 7.19 1.28 2.67 2.83 4.99 4.97 7.49 2.14 2.49 4.88 5.16 9.11 8.87s9.96 8.47 13.77 12.57 5.7 7.55 7.23 11 2.7 6.9 3.74 9.96 1.95 5.73 2.47 9.34c.53 3.62.66 8.17.43 12.5s-.82 8.43-2.22 12.6-3.61 8.4-5.99 12.37c-2.37 3.97-4.91 7.68-7.58 10.94-2.67 3.25-5.47 6.05-8.79 8.56s-7.16 4.72-10.87 6.58c-3.71 1.85-7.29 3.35-11.04 4.59-3.74 1.23-7.65 2.21-11.68 2.7-4.04.49-8.21.49-12.41.13-4.19-.36-8.43-1.08-12.37-1.92-3.93-.85-7.58-1.83-12.04-4.07-4.46-2.25-9.73-5.76-13.84-9.12-4.1-3.35-7.03-6.54-9.96-10.54-2.93-4.01-5.86-8.83-7.68-14.46S.54 87.14.38 81.47c-.16-5.66.23-10.55 1.24-15.66s2.63-10.44 4.75-15.13 4.72-8.73 8.69-12.99 9.31-8.76 13.09-11.91c3.77-3.16 5.99-4.99 7.96-7.31s3.7-5.14 5.05-8.2 2.32-6.36 2.8-8.01z"/></svg>