<svg width="768" height="138" viewBox="0 0 768 138" fill="none" xmlns="http://www.w3.org/2000/svg">
<path d="M227 40H277.462V50.0101H238.442V64.7372H271.578V74.1352H238.442V96.2799H227V40Z" fill="#0B3954"/>
<path d="M286.377 40H297.819V71.0025C297.819 73.5471 298.168 75.8155 298.866 77.808C299.564 79.7764 300.599 81.4447 301.97 82.813C303.366 84.1813 305.087 85.2255 307.132 85.9457C309.178 86.6418 311.56 86.9899 314.279 86.9899C316.974 86.9899 319.344 86.6418 321.39 85.9457C323.459 85.2255 325.18 84.1813 326.552 82.813C327.947 81.4447 328.994 79.7764 329.692 77.808C330.39 75.8155 330.739 73.5471 330.739 71.0025V40H342.181V72.3708C342.181 76.0676 341.555 79.4283 340.304 82.4529C339.053 85.4776 337.236 88.0701 334.853 90.2306C332.471 92.391 329.547 94.0594 326.082 95.2356C322.641 96.4119 318.707 97 314.279 97C309.851 97 305.905 96.4119 302.44 95.2356C298.999 94.0594 296.087 92.391 293.705 90.2306C291.322 88.0701 289.505 85.4776 288.254 82.4529C287.003 79.4283 286.377 76.0676 286.377 72.3708V40Z" fill="#0B3954"/>
<path d="M356.15 40H384.846C389.177 40 392.931 40.4561 396.108 41.3683C399.284 42.2565 401.919 43.5527 404.013 45.2571C406.106 46.9615 407.658 49.0379 408.669 51.4864C409.704 53.9349 410.221 56.7075 410.221 59.8042C410.221 61.8926 409.968 63.885 409.463 65.7814C408.958 67.6538 408.176 69.3822 407.117 70.9665C406.082 72.5509 404.771 73.9672 403.182 75.2154C401.594 76.4397 399.729 77.4599 397.588 78.2761L409.86 96.2799H395.855L385.243 80.2925H384.918L367.592 80.2565V96.2799H356.15V40ZM385.135 70.3904C387.3 70.3904 389.189 70.1383 390.802 69.6342C392.438 69.1301 393.798 68.422 394.88 67.5098C395.987 66.5976 396.805 65.4934 397.335 64.1971C397.888 62.8768 398.165 61.4125 398.165 59.8042C398.165 56.6595 397.082 54.235 394.916 52.5306C392.751 50.8023 389.49 49.9381 385.135 49.9381H367.592V70.3904H385.135Z" fill="#0B3954"/>
<path d="M423.721 40H435.163L470.32 58.3639V40H481.762V96.2799H470.32V70.4624L435.163 52.2066V96.2799H423.721V40Z" fill="#0B3954"/>
<path d="M496.273 40H507.787V96.2799H496.273V40Z" fill="#0B3954"/>
<path d="M539.407 50.0101H518.58V40H571.676V50.0101H550.849V96.2799H539.407V50.0101Z" fill="#0B3954"/>
<path d="M581.783 40H593.225V71.0025C593.225 73.5471 593.574 75.8155 594.272 77.808C594.97 79.7764 596.005 81.4447 597.376 82.813C598.772 84.1813 600.493 85.2255 602.538 85.9457C604.583 86.6418 606.966 86.9899 609.685 86.9899C612.38 86.9899 614.75 86.6418 616.796 85.9457C618.865 85.2255 620.586 84.1813 621.957 82.813C623.353 81.4447 624.4 79.7764 625.098 77.808C625.796 75.8155 626.145 73.5471 626.145 71.0025V40H637.587V72.3708C637.587 76.0676 636.961 79.4283 635.71 82.4529C634.459 85.4776 632.642 88.0701 630.259 90.2306C627.877 92.391 624.953 94.0594 621.488 95.2356C618.047 96.4119 614.113 97 609.685 97C605.257 97 601.311 96.4119 597.846 95.2356C594.405 94.0594 591.493 92.391 589.111 90.2306C586.728 88.0701 584.911 85.4776 583.66 82.4529C582.409 79.4283 581.783 76.0676 581.783 72.3708V40Z" fill="#0B3954"/>
<path d="M651.556 40H680.252C684.583 40 688.337 40.4561 691.514 41.3683C694.69 42.2565 697.325 43.5527 699.418 45.2571C701.512 46.9615 703.064 49.0379 704.075 51.4864C705.11 53.9349 705.627 56.7075 705.627 59.8042C705.627 61.8926 705.374 63.885 704.869 65.7814C704.364 67.6538 703.581 69.3822 702.523 70.9665C701.488 72.5509 700.176 73.9672 698.588 75.2154C697 76.4397 695.135 77.4599 692.993 78.2761L705.266 96.2799H691.261L680.649 80.2925H680.324L662.998 80.2565V96.2799H651.556V40ZM680.54 70.3904C682.706 70.3904 684.595 70.1383 686.207 69.6342C687.844 69.1301 689.203 68.422 690.286 67.5098C691.393 66.5976 692.211 65.4934 692.741 64.1971C693.294 62.8768 693.571 61.4125 693.571 59.8042C693.571 56.6595 692.488 54.235 690.322 52.5306C688.157 50.8023 684.896 49.9381 680.54 49.9381H662.998V70.3904H680.54Z" fill="#0B3954"/>
<path d="M719.199 40H767.242V50.0101H730.641V61.2445H763.055V70.6425H730.641V86.3058H768V96.2799H719.199V40Z" fill="#0B3954"/>
<path d="M154.145 38.5516C151.44 38.547 148.764 39.1043 146.279 40.1891C143.795 41.2739 141.555 42.8633 139.698 44.8597V23.7876C139.689 17.4815 137.219 11.4362 132.828 6.97714C128.437 2.51803 122.484 0.00896553 116.274 0L57.7323 0C51.5219 0.00672846 45.5677 2.51508 41.1763 6.97467C36.7848 11.4343 34.3148 17.4808 34.3082 23.7876V44.8724C31.5772 41.936 28.0412 39.8997 24.1579 39.027C20.2745 38.1544 16.2226 38.4855 12.5267 39.9777C8.83073 41.4698 5.66094 44.0542 3.4276 47.3963C1.19425 50.7385 0.000200489 54.6844 0 58.7235C0 85.2012 16.0757 107.938 38.8365 117.398L41.181 138H46.7816L50.436 120.908C54.3715 121.688 58.372 122.079 62.3817 122.077H111.627C115.636 122.079 119.635 121.688 123.57 120.908L127.225 138H132.825L135.163 117.392C157.924 107.938 174 85.1949 174 58.7171C173.992 53.3717 171.898 48.2474 168.176 44.4674C164.454 40.6874 159.409 38.56 154.145 38.5516V38.5516ZM111.627 116.693H62.3817C30.9061 116.693 5.29599 90.6853 5.29599 58.7235C5.29921 54.9497 6.72311 51.3199 9.27605 48.5776C11.829 45.8353 15.3178 44.188 19.0279 43.973C22.738 43.758 26.3886 44.9917 29.2321 47.4213C32.0757 49.8509 33.8969 53.2927 34.3228 57.0416C34.3902 57.5996 34.425 58.1612 34.427 58.7235C34.427 74.375 46.9672 87.1076 62.3775 87.1076H86.9906C87.3446 87.1177 87.697 87.0556 88.027 86.925C88.3569 86.7944 88.6577 86.598 88.9116 86.3473C89.1655 86.0966 89.3673 85.7967 89.5052 85.4654C89.643 85.1341 89.714 84.7782 89.714 84.4185C89.714 84.0589 89.643 83.7029 89.5052 83.3716C89.3673 83.0404 89.1655 82.7405 88.9116 82.4898C88.6577 82.2391 88.3569 82.0427 88.027 81.9121C87.697 81.7815 87.3446 81.7194 86.9906 81.7295H62.3775C56.3724 81.7194 50.6161 79.2922 46.3701 74.9799C42.124 70.6675 39.7345 64.8217 39.7251 58.7235C39.7265 58.0086 39.6868 57.2942 39.6062 56.584V23.7876C39.6112 18.907 41.5224 14.2278 44.9206 10.7765C48.3188 7.3252 52.9263 5.38377 57.7323 5.37816H116.274C121.08 5.38321 125.688 7.32439 129.087 10.7757C132.486 14.2271 134.397 18.9067 134.402 23.7876V56.5565C134.322 57.2752 134.281 57.998 134.281 58.7213C134.274 63.7789 132.629 68.6938 129.6 72.7084C126.571 76.723 122.326 79.6145 117.519 80.9372C117.473 80.9493 117.428 80.9671 117.386 80.9902C117.349 80.9933 117.313 81.0027 117.279 81.0177C108.116 84.4874 94.4788 71.6976 77.1579 55.4826C74.1125 52.6039 71.8494 50.0493 70.0472 47.4545C68.366 45.0207 67.2793 42.8559 66.6702 40.6635C65.9422 38.0941 65.9694 35.8234 66.7495 33.6988C67.7048 31.1018 69.1211 29.2505 71.1068 28.0897C73.4638 26.7065 75.9669 26.4778 78.7995 27.4183C80.4997 27.9928 82.0333 28.9862 83.2632 30.3096C83.6804 30.7333 84.0975 31.1845 84.5147 31.6145L86.8592 34.061L89.0973 31.964C89.429 31.6547 89.746 31.3709 90.0506 31.0489C91.3021 29.6911 92.3283 28.8311 93.4004 28.238C96.1809 26.7192 98.8424 26.4629 101.535 27.431C103.298 28.0664 104.741 29.2463 105.945 31.0616C107.388 33.2412 108.012 35.5099 107.822 37.9882C107.703 39.7484 107.186 41.5383 106.272 43.4956C105.161 45.8616 103.638 48.1345 101.475 50.6636C99.6175 52.8296 97.6174 54.865 95.4884 56.7556C95.0061 57.2397 94.7248 57.893 94.7024 58.5812C94.6799 59.2694 94.9179 59.9401 95.3675 60.4556C95.8171 60.971 96.4441 61.2919 97.1195 61.3523C97.795 61.4127 98.4675 61.208 98.9989 60.7802C101.291 58.7271 103.451 56.5259 105.465 54.1905C107.914 51.3266 109.743 48.5835 111.041 45.8002C112.244 43.2456 112.918 40.8245 113.093 38.3864C113.37 34.727 112.399 31.0822 110.342 28.0643C108.5 25.2937 106.13 23.3703 103.298 22.3451C99.1658 20.8624 94.994 21.2564 90.8891 23.5017C89.4579 24.3019 88.1507 25.3118 87.0094 26.4989C85.1856 24.5837 82.9328 23.1448 80.4431 22.3049C76.165 20.8793 72.1268 21.2691 68.4453 23.4339C65.3999 25.2365 63.1618 28.0601 61.7851 31.8242C60.6191 35.0121 60.5524 38.4817 61.5765 42.1378C62.3713 44.9211 63.6833 47.5986 65.7211 50.5429C67.759 53.4872 70.2245 56.2621 73.614 59.4712C90.3009 75.0973 102.983 86.9848 114 86.9848C115.669 86.9939 117.325 86.7034 118.894 86.1269C118.922 86.1243 118.949 86.1157 118.973 86.1015C119.025 86.0866 119.079 86.0612 119.132 86.0464C125.01 84.3843 130.191 80.8131 133.882 75.8787C137.574 70.9443 139.572 64.9181 139.573 58.7213C139.595 54.8043 141.137 51.0542 143.866 48.2852C146.594 45.5163 150.288 43.9519 154.145 43.9319C158.007 43.9342 161.711 45.4933 164.442 48.2667C167.173 51.0402 168.708 54.8012 168.71 58.7235C168.71 90.6853 143.1 116.693 111.627 116.693Z" fill="#FFB128"/>
<path d="M18 60C19.6569 60 21 58.6569 21 57C21 55.3431 19.6569 54 18 54C16.3431 54 15 55.3431 15 57C15 58.6569 16.3431 60 18 60Z" fill="#FFB128"/>
<path d="M153 60C154.657 60 156 58.6569 156 57C156 55.3431 154.657 54 153 54C151.343 54 150 55.3431 150 57C150 58.6569 151.343 60 153 60Z" fill="#FFB128"/>
</svg>
