<svg width="58" height="43" viewBox="0 0 58 43" fill="none" xmlns="http://www.w3.org/2000/svg">
<path d="M2.00002 36.2592H0.650024V37.6092H2.00002V36.2592ZM56 36.2592V37.6092H57.35V36.2592H56ZM3.35002 36.2592V32.5723H0.650024V36.2592H3.35002ZM13.4655 22.4568H44.5344V19.7568H13.4655V22.4568ZM54.65 32.5723V36.2592H57.35V32.5723H54.65ZM56 34.9092H2.00002V37.6092H56V34.9092ZM44.5344 22.4568C50.1211 22.4568 54.65 26.9857 54.65 32.5723H57.35C57.35 25.4945 51.6123 19.7568 44.5344 19.7568V22.4568ZM3.35002 32.5723C3.35002 26.9857 7.87892 22.4568 13.4655 22.4568V19.7568C6.38772 19.7568 0.650024 25.4945 0.650024 32.5723H3.35002Z" fill="white"/>
<path d="M23.087 13.2225H34.9123V10.5225H23.087V13.2225ZM39.2951 17.6053V19.543H41.995V17.6053H39.2951ZM18.7042 19.543V17.6053H16.0042V19.543H18.7042ZM34.9123 13.2225C37.3329 13.2225 39.2951 15.1848 39.2951 17.6053H41.995C41.995 13.6936 38.824 10.5225 34.9123 10.5225V13.2225ZM23.087 10.5225C19.1753 10.5225 16.0042 13.6936 16.0042 17.6053H18.7042C18.7042 15.1848 20.6665 13.2225 23.087 13.2225V10.5225Z" fill="white"/>
<path d="M8.78606 22.6819V7.92557H6.08606V22.6819H8.78606ZM13.1689 3.54277H44.8309V0.842773H13.1689V3.54277ZM49.2137 7.92557V22.0422H51.9137V7.92557H49.2137ZM44.8309 3.54277C47.2515 3.54277 49.2137 5.50507 49.2137 7.92557H51.9137C51.9137 4.01387 48.7426 0.842773 44.8309 0.842773V3.54277ZM8.78606 7.92557C8.78606 5.50507 10.7484 3.54277 13.1689 3.54277V0.842773C9.25716 0.842773 6.08606 4.01387 6.08606 7.92557H8.78606Z" fill="white"/>
<path d="M8.52917 37.6094V41.5851" stroke="white" stroke-width="2.7" stroke-linecap="round"/>
<path d="M49.5299 37.6094V41.5851" stroke="white" stroke-width="2.7" stroke-linecap="round"/>
</svg>
