<svg width="12" height="13" viewBox="0 0 12 13" fill="none" xmlns="http://www.w3.org/2000/svg">
<path d="M11.1263 5.41711L11.6849 5.97571C11.9135 6.22961 11.9135 6.61047 11.6849 6.83899L6.75916 11.7648C6.50525 12.0187 6.12439 12.0187 5.89587 11.7648L0.944702 6.83899C0.716187 6.61047 0.716187 6.20422 0.944702 5.97571L1.5033 5.41711C1.7572 5.16321 2.13806 5.1886 2.39197 5.41711L5.31189 8.48938V1.17688C5.31189 0.846802 5.5658 0.567505 5.92126 0.567505H6.73376C7.06384 0.567505 7.34314 0.846802 7.34314 1.17688V8.48938L10.2377 5.41711C10.4916 5.1886 10.8724 5.16321 11.1263 5.41711Z" fill="#0B3954"/>
</svg>
