<svg width="26" height="20" viewBox="0 0 26 20" fill="none" xmlns="http://www.w3.org/2000/svg">
<path fill-rule="evenodd" clip-rule="evenodd" d="M5.05745 10.2825C3.29013 10.2825 1.85745 11.7152 1.85745 13.4825V15.417H24.2574V13.4825C24.2574 11.7152 22.8248 10.2825 21.0574 10.2825H5.05745ZM0.257446 13.4825C0.257446 10.8315 2.40649 8.6825 5.05745 8.6825H21.0574C23.7084 8.6825 25.8574 10.8315 25.8574 13.4825V17.017H0.257446V13.4825Z" fill="#0B3954"/>
<path fill-rule="evenodd" clip-rule="evenodd" d="M7.08167 7.378C7.08167 5.8316 8.33527 4.578 9.88166 4.578H16.2332C17.7796 4.578 19.0332 5.8316 19.0332 7.378V8.78714H17.4332V7.378C17.4332 6.71526 16.8959 6.178 16.2332 6.178H9.88166C9.21892 6.178 8.68167 6.71526 8.68167 7.378V8.78714H7.08167V7.378Z" fill="#0B3954"/>
<path fill-rule="evenodd" clip-rule="evenodd" d="M5.47346 1.87625C4.81072 1.87625 4.27346 2.41351 4.27346 3.07625V10.1825H2.67346V3.07625C2.67346 1.52985 3.92706 0.276245 5.47346 0.276245H20.6412C22.1876 0.276245 23.4412 1.52987 23.4412 3.07625V9.89819H21.8412V3.07625C21.8412 2.41351 21.304 1.87625 20.6412 1.87625H5.47346Z" fill="#0B3954"/>
<path fill-rule="evenodd" clip-rule="evenodd" d="M4.15925 16.217C4.60107 16.217 4.95925 16.575 4.95925 17.017V18.3838C4.95925 18.8258 4.60107 19.1838 4.15925 19.1838C3.71743 19.1838 3.35925 18.8258 3.35925 18.3838V17.017C3.35925 16.575 3.71743 16.217 4.15925 16.217Z" fill="#0B3954"/>
<path fill-rule="evenodd" clip-rule="evenodd" d="M22.3819 16.217C22.8237 16.217 23.1819 16.575 23.1819 17.017V18.3838C23.1819 18.8258 22.8237 19.1838 22.3819 19.1838C21.9401 19.1838 21.5819 18.8258 21.5819 18.3838V17.017C21.5819 16.575 21.9401 16.217 22.3819 16.217Z" fill="#0B3954"/>
</svg>
