<svg width="21" height="22" viewBox="0 0 21 22" fill="none" xmlns="http://www.w3.org/2000/svg">
<g clip-path="url(#clip0_1_2019)">
<g clip-path="url(#clip1_1_2019)">
<g clip-path="url(#clip2_1_2019)">
<path fill-rule="evenodd" clip-rule="evenodd" d="M10.2365 2.06524C8.6106 2.06524 7.29233 3.38351 7.29233 5.00944H5.29826C5.29826 2.28203 7.50912 0.071167 10.2365 0.071167C12.9639 0.071167 15.1748 2.28203 15.1748 5.00944H13.1807C13.1807 3.38351 11.8625 2.06524 10.2365 2.06524ZM18.3612 7.0082H2.35875V17.0613C2.35875 17.5914 2.56933 18.0998 2.94418 18.4746C3.31902 18.8495 3.82741 19.0601 4.35752 19.0601H16.3625C16.625 19.0601 16.8849 19.0083 17.1274 18.9079C17.3699 18.8074 17.5903 18.6602 17.7759 18.4745C17.9615 18.2889 18.1087 18.0685 18.2091 17.826C18.3096 17.5835 18.3613 17.3235 18.3612 17.061V7.00845V7.0082ZM0.359985 5.00944V17.0613C0.359985 19.2687 2.14986 21.0588 4.35752 21.0588H16.3625C18.5699 21.0588 20.36 19.2689 20.36 17.0613V5.00944H0.359985Z" fill="#0B3954"/>
<path d="M7.27353 9.94774C7.27353 10.2097 7.16947 10.4609 6.98425 10.6461C6.79903 10.8313 6.54781 10.9354 6.28587 10.9354C6.02393 10.9354 5.77272 10.8313 5.5875 10.6461C5.40227 10.4609 5.29822 10.2097 5.29822 9.94774C5.29822 9.6858 5.40227 9.43458 5.5875 9.24936C5.77272 9.06414 6.02393 8.96008 6.28587 8.96008C6.54781 8.96008 6.79903 9.06414 6.98425 9.24936C7.16947 9.43458 7.27353 9.6858 7.27353 9.94774ZM15.4217 9.94774C15.4217 10.2097 15.3176 10.4609 15.1324 10.6461C14.9472 10.8313 14.696 10.9354 14.434 10.9354C14.1721 10.9354 13.9209 10.8313 13.7356 10.6461C13.5504 10.4609 13.4464 10.2097 13.4464 9.94774C13.4464 9.6858 13.5504 9.43458 13.7356 9.24936C13.9209 9.06414 14.1721 8.96008 14.434 8.96008C14.696 8.96008 14.9472 9.06414 15.1324 9.24936C15.3176 9.43458 15.4217 9.6858 15.4217 9.94774Z" fill="#0B3954"/>
</g>
</g>
</g>
<defs>
<clipPath id="clip0_1_2019">
<rect width="20" height="20.98" fill="white" transform="translate(0.359985 0.0749512)"/>
</clipPath>
<clipPath id="clip1_1_2019">
<rect width="20" height="20.98" fill="white" transform="translate(0.359985 0.0749512)"/>
</clipPath>
<clipPath id="clip2_1_2019">
<rect width="20" height="20.9877" fill="white" transform="translate(0.359985 0.071167)"/>
</clipPath>
</defs>
</svg>
