<svg width="25" height="26" viewBox="0 0 25 26" fill="none" xmlns="http://www.w3.org/2000/svg">
<path fill-rule="evenodd" clip-rule="evenodd" d="M5.70863 13.7039C7.23885 14.7571 9.32765 15.9448 12.6002 15.9448C15.8728 15.9448 17.9616 14.7571 19.492 13.7039C19.7304 13.5397 19.9394 13.3903 20.1436 13.2442C20.2866 13.142 20.4272 13.0414 20.574 12.9386C20.9062 12.706 21.2432 12.4816 21.5738 12.3151C21.903 12.1492 22.2833 12.0104 22.6973 12.0068C23.1376 12.003 23.5424 12.1521 23.8998 12.4369C24.8588 13.2009 25.0054 14.472 24.7656 15.6547C24.5198 16.8674 23.8404 18.2078 22.8206 19.446C20.7726 21.9328 17.2397 24.142 12.6002 24.142C7.96067 24.142 4.42793 21.9328 2.37993 19.446C1.36009 18.2078 0.680731 16.8674 0.434851 15.6547C0.195031 14.472 0.341651 13.2009 1.30071 12.4369C1.65819 12.1521 2.06297 12.003 2.50307 12.0068C2.91721 12.0104 3.29747 12.1492 3.62679 12.3151C3.95727 12.4816 4.29431 12.706 4.62647 12.9386C4.77335 13.0414 4.91397 13.142 5.05685 13.2442C5.26113 13.3903 5.47005 13.5397 5.70863 13.7039ZM2.48917 13.6067C2.44635 13.6064 2.39277 13.6126 2.29763 13.6883C2.02629 13.9045 1.81469 14.4083 2.00295 15.3368C2.18513 16.2353 2.72011 17.3424 3.61499 18.4288C5.39641 20.5918 8.49459 22.542 12.6002 22.542C16.706 22.542 19.8042 20.5918 21.5856 18.4288C22.4804 17.3424 23.0154 16.2353 23.1976 15.3368C23.3858 14.4083 23.1742 13.9045 22.903 13.6883C22.8078 13.6126 22.7542 13.6064 22.7114 13.6067C22.6426 13.6073 22.5154 13.6323 22.2938 13.7439C22.0734 13.855 21.816 14.0221 21.4918 14.2492C21.3746 14.3312 21.2424 14.4257 21.1012 14.5266C20.881 14.6838 20.6392 14.8566 20.399 15.0219C18.7304 16.1703 16.3238 17.5448 12.6002 17.5448C8.87667 17.5448 6.47017 16.1703 4.80151 15.0219C4.56131 14.8566 4.31945 14.6838 4.09933 14.5266C3.95811 14.4257 3.82585 14.3312 3.70875 14.2492C3.38443 14.0221 3.12719 13.855 2.90677 13.7439C2.68521 13.6323 2.55795 13.6073 2.48917 13.6067Z" fill="#0B3954"/>
<path fill-rule="evenodd" clip-rule="evenodd" d="M4.73185 4.99962C4.48037 5.4347 4.45275 5.74926 4.48559 5.91054C4.74989 7.20796 6.05719 12.256 6.68471 14.6427L5.13731 15.0495C4.51699 12.6903 3.19357 7.58368 2.91779 6.22992C2.78189 5.56272 2.97289 4.84548 3.34661 4.19892C3.72683 3.5411 4.32925 2.89352 5.13541 2.32496C6.75229 1.18462 9.23061 0.329956 12.6003 0.329956C15.97 0.329956 18.4482 1.18462 20.0652 2.32496C20.8714 2.89352 21.4738 3.5411 21.854 4.19892C22.2278 4.84548 22.4188 5.56272 22.2829 6.22992C22.007 7.58368 20.6836 12.6903 20.0632 15.0495L18.5158 14.6427C19.1434 12.256 20.4506 7.20796 20.715 5.91054C20.7478 5.74926 20.7202 5.4347 20.4688 4.99962C20.2239 4.5758 19.7944 4.09188 19.143 3.6325C17.8448 2.71694 15.7051 1.92996 12.6003 1.92996C9.49551 1.92996 7.35575 2.71694 6.05757 3.6325C5.40619 4.09188 4.97683 4.5758 4.73185 4.99962Z" fill="#0B3954"/>
<path fill-rule="evenodd" clip-rule="evenodd" d="M6.66291 22.0349C7.01638 22.3001 7.088 22.8015 6.82291 23.1549L5.10141 25.4503C4.83633 25.8037 4.33489 25.8753 3.98143 25.6103C3.62795 25.3451 3.55633 24.8437 3.82141 24.4903L5.54291 22.1949C5.80799 21.8415 6.30944 21.7699 6.66291 22.0349Z" fill="#0B3954"/>
<path fill-rule="evenodd" clip-rule="evenodd" d="M18.4943 22.0349C18.1407 22.3001 18.0691 22.8015 18.3343 23.1549L20.0557 25.4503C20.3209 25.8037 20.8223 25.8753 21.1757 25.6103C21.5291 25.3451 21.6009 24.8437 21.3357 24.4903L19.6143 22.1949C19.3491 21.8415 18.8477 21.7699 18.4943 22.0349Z" fill="#0B3954"/>
</svg>
