<svg width="27" height="17" viewBox="0 0 27 17" fill="none" xmlns="http://www.w3.org/2000/svg">
<path fill-rule="evenodd" clip-rule="evenodd" d="M3.25251 2.22244C2.58977 2.22244 2.05251 2.7597 2.05251 3.42244V16.838H0.452515V3.42244C0.452515 1.87604 1.70611 0.622437 3.25251 0.622437H23.2525C24.7989 0.622437 26.0525 1.87604 26.0525 3.42244V16.9146H14.9855V2.22244H3.25251ZM16.5855 2.22244V6.29734H24.4525V3.42244C24.4525 2.7597 23.9153 2.22244 23.2525 2.22244H16.5855ZM24.4525 7.89734H16.5855V15.3146H24.4525V7.89734Z" fill="#0B3954"/>
<path d="M21.3287 9.87955C21.3287 10.2935 20.9931 10.6291 20.5791 10.6291C20.1653 10.6291 19.8297 10.2935 19.8297 9.87955C19.8297 9.46559 20.1653 9.13 20.5791 9.13C20.9931 9.13 21.3287 9.46559 21.3287 9.87955Z" fill="#0B3954"/>
</svg>
