<svg width="18" height="26" viewBox="0 0 18 26" fill="none" xmlns="http://www.w3.org/2000/svg">
<path fill-rule="evenodd" clip-rule="evenodd" d="M3.35132 6.23964C3.35132 3.25196 5.77332 0.829956 8.76102 0.829956C11.7487 0.829956 14.1707 3.25196 14.1707 6.23964V24.6638H12.5707V6.23964C12.5707 4.13562 10.865 2.42996 8.76102 2.42996C6.65698 2.42996 4.95132 4.13562 4.95132 6.23964V7.09818H3.35132V6.23964Z" fill="#0B3954"/>
<path fill-rule="evenodd" clip-rule="evenodd" d="M8.76123 24.83C8.76123 24.3882 9.11941 24.03 9.56123 24.03H17.1801C17.6219 24.03 17.9801 24.3882 17.9801 24.83C17.9801 25.2718 17.6219 25.63 17.1801 25.63H9.56123C9.11941 25.63 8.76123 25.2718 8.76123 24.83Z" fill="#0B3954"/>
<path fill-rule="evenodd" clip-rule="evenodd" d="M0.100342 10.6452C0.100342 8.40784 1.91406 6.59412 4.1514 6.59412C6.38872 6.59412 8.20244 8.40784 8.20244 10.6452V14.6962H0.100342V10.6452ZM4.1514 8.19412C2.79772 8.19412 1.70034 9.2915 1.70034 10.6452V13.0962H6.60244V10.6452C6.60244 9.2915 5.50508 8.19412 4.1514 8.19412Z" fill="#0B3954"/>
</svg>
