<svg width="240" height="44" viewBox="0 0 240 44" fill="none" xmlns="http://www.w3.org/2000/svg">
<g clip-path="url(#clip0_1_1987)">
<path d="M70.9375 12.5024H86.7069V15.6306H74.5131V20.2328H84.8681V23.1697H74.5131V30.0899H70.9375V12.5024Z" fill="#0B3954"/>
<path d="M89.4928 12.5024H93.0684V22.1907C93.0684 22.9859 93.1775 23.6948 93.3956 24.3174C93.6137 24.9326 93.9372 25.4539 94.3656 25.8815C94.8019 26.3091 95.3397 26.6354 95.9787 26.8605C96.6181 27.078 97.3625 27.1868 98.2122 27.1868C99.0544 27.1868 99.795 27.078 100.434 26.8605C101.081 26.6354 101.619 26.3091 102.047 25.8815C102.483 25.4539 102.811 24.9326 103.029 24.3174C103.247 23.6948 103.356 22.9859 103.356 22.1907V12.5024H106.932V22.6183C106.932 23.7736 106.736 24.8238 106.345 25.769C105.954 26.7142 105.386 27.5243 104.642 28.1995C103.897 28.8746 102.983 29.396 101.901 29.7636C100.825 30.1312 99.5959 30.3149 98.2122 30.3149C96.8284 30.3149 95.5953 30.1312 94.5125 29.7636C93.4372 29.396 92.5272 28.8746 91.7828 28.1995C91.0381 27.5243 90.4703 26.7142 90.0794 25.769C89.6884 24.8238 89.4928 23.7736 89.4928 22.6183V12.5024Z" fill="#0B3954"/>
<path d="M111.297 12.5024H120.264C121.618 12.5024 122.791 12.645 123.784 12.93C124.776 13.2076 125.6 13.6127 126.254 14.1453C126.908 14.6779 127.393 15.3268 127.709 16.0919C128.033 16.8571 128.194 17.7235 128.194 18.6913C128.194 19.3439 128.115 19.9665 127.957 20.5591C127.799 21.1443 127.555 21.6844 127.224 22.1795C126.901 22.6746 126.491 23.1172 125.994 23.5073C125.498 23.8898 124.915 24.2087 124.246 24.4637L128.081 30.0899H123.705L120.388 25.0938H120.287L114.873 25.0826V30.0899H111.297V12.5024ZM120.355 21.9994C121.031 21.9994 121.622 21.9207 122.126 21.7631C122.637 21.6056 123.062 21.3843 123.4 21.0993C123.746 20.8142 124.002 20.4691 124.167 20.064C124.34 19.6514 124.427 19.1938 124.427 18.6913C124.427 17.7085 124.088 16.9509 123.411 16.4183C122.735 15.8782 121.716 15.6081 120.355 15.6081H114.873V21.9994H120.355Z" fill="#0B3954"/>
<path d="M132.413 12.5024H135.988L146.975 18.2412V12.5024H150.551V30.0899H146.975V22.0219L135.988 16.317V30.0899H132.413V12.5024Z" fill="#0B3954"/>
<path d="M155.085 12.5024H158.683V30.0899H155.085V12.5024Z" fill="#0B3954"/>
<path d="M168.565 15.6306H162.056V12.5024H178.649V15.6306H172.14V30.0899H168.565V15.6306Z" fill="#0B3954"/>
<path d="M181.807 12.5024H185.383V22.1907C185.383 22.9859 185.492 23.6948 185.71 24.3174C185.928 24.9326 186.251 25.4539 186.68 25.8815C187.116 26.3091 187.654 26.6354 188.293 26.8605C188.932 27.078 189.677 27.1868 190.526 27.1868C191.369 27.1868 192.109 27.078 192.749 26.8605C193.395 26.6354 193.933 26.3091 194.361 25.8815C194.798 25.4539 195.125 24.9326 195.343 24.3174C195.561 23.6948 195.67 22.9859 195.67 22.1907V12.5024H199.246V22.6183C199.246 23.7736 199.05 24.8238 198.659 25.769C198.268 26.7142 197.701 27.5243 196.956 28.1995C196.211 28.8746 195.298 29.396 194.215 29.7636C193.14 30.1312 191.91 30.3149 190.526 30.3149C189.143 30.3149 187.91 30.1312 186.827 29.7636C185.752 29.396 184.842 28.8746 184.097 28.1995C183.352 27.5243 182.785 26.7142 182.394 25.769C182.003 24.8238 181.807 23.7736 181.807 22.6183V12.5024Z" fill="#0B3954"/>
<path d="M203.611 12.5024H212.579C213.932 12.5024 215.105 12.645 216.098 12.93C217.091 13.2076 217.914 13.6127 218.568 14.1453C219.223 14.6779 219.708 15.3268 220.024 16.0919C220.347 16.8571 220.509 17.7235 220.509 18.6913C220.509 19.3439 220.429 19.9665 220.272 20.5591C220.114 21.1443 219.869 21.6844 219.539 22.1795C219.215 22.6746 218.805 23.1172 218.309 23.5073C217.813 23.8898 217.23 24.2087 216.56 24.4637L220.396 30.0899H216.019L212.703 25.0938H212.601L207.187 25.0826V30.0899H203.611V12.5024ZM212.669 21.9994C213.346 21.9994 213.936 21.9207 214.44 21.7631C214.951 21.6056 215.376 21.3843 215.714 21.0993C216.06 20.8142 216.316 20.4691 216.482 20.064C216.654 19.6514 216.741 19.1938 216.741 18.6913C216.741 17.7085 216.403 16.9509 215.726 16.4183C215.049 15.8782 214.03 15.6081 212.669 15.6081H207.187V21.9994H212.669Z" fill="#0B3954"/>
<path d="M224.75 12.5024H239.763V15.6306H228.325V19.1413H238.455V22.0782H228.325V26.973H240V30.0899H224.75V12.5024Z" fill="#0B3954"/>
<path d="M48.1703 12.0498C47.325 12.0484 46.4888 12.2225 45.7122 12.5615C44.9359 12.9005 44.2359 13.3972 43.6556 14.0211V7.43607C43.6528 5.46541 42.8809 3.57625 41.5088 2.1828C40.1366 0.789326 38.2762 0.00524313 36.3356 0.00244141H18.0413C16.1006 0.00454405 14.2399 0.788404 12.8676 2.18203C11.4952 3.57566 10.7234 5.46519 10.7213 7.43607V14.0251C9.86788 13.1074 8.76287 12.4711 7.54934 12.1984C6.33578 11.9257 5.06956 12.0292 3.91459 12.4955C2.7596 12.9618 1.76904 13.7694 1.07113 14.8138C0.373203 15.8582 6.26528e-05 17.0913 0 18.3535C0 26.6278 5.02366 33.7331 12.1364 36.6893L12.8691 43.1274H14.6193L15.7613 37.7862C16.9911 38.0299 18.2412 38.1521 19.4943 38.1515H34.8834C36.1362 38.1521 37.3859 38.0299 38.6156 37.7862L39.7578 43.1274H41.5078L42.2384 36.6874C49.3512 33.7331 54.375 26.6258 54.375 18.3515C54.3725 16.6811 53.7181 15.0798 52.555 13.8985C51.3919 12.7173 49.8153 12.0524 48.1703 12.0498ZM34.8834 36.469H19.4943C9.65816 36.469 1.655 28.3416 1.655 18.3535C1.656 17.1742 2.10097 16.0399 2.89877 15.1829C3.69656 14.326 4.78681 13.8112 5.94622 13.744C7.10563 13.6768 8.24644 14.0623 9.13503 14.8216C10.0237 15.5808 10.5928 16.6564 10.7259 17.8279C10.7469 18.0023 10.7578 18.1778 10.7584 18.3535C10.7584 23.2446 14.6772 27.2236 19.493 27.2236H27.1846C27.2952 27.2267 27.4053 27.2073 27.5084 27.1665C27.6115 27.1257 27.7055 27.0643 27.7849 26.986C27.8642 26.9076 27.9273 26.8139 27.9704 26.7104C28.0134 26.6068 28.0356 26.4956 28.0356 26.3832C28.0356 26.2708 28.0134 26.1596 27.9704 26.0561C27.9273 25.9526 27.8642 25.8588 27.7849 25.7805C27.7055 25.7022 27.6115 25.6408 27.5084 25.6C27.4053 25.5592 27.2952 25.5398 27.1846 25.5429H19.493C17.6164 25.5398 15.8175 24.7813 14.4907 23.4337C13.1637 22.086 12.417 20.2592 12.4141 18.3535C12.4145 18.1301 12.4021 17.9069 12.3769 17.6849V7.43607C12.3785 5.91088 12.9757 4.44863 14.0377 3.3701C15.0996 2.29157 16.5395 1.68487 18.0413 1.68312H36.3356C37.8375 1.68469 39.2775 2.29131 40.3397 3.36985C41.4019 4.44841 41.9991 5.91079 42.0006 7.43607V17.6763C41.9756 17.9009 41.9628 18.1268 41.9628 18.3528C41.9606 19.9333 41.4466 21.4693 40.5 22.7238C39.5534 23.9784 38.2269 24.882 36.7247 25.2953C36.7103 25.2991 36.6963 25.3047 36.6831 25.3119C36.6716 25.3128 36.6603 25.3158 36.6497 25.3205C33.7863 26.4048 29.5246 22.4079 24.1118 17.3408C23.1602 16.4412 22.4529 15.6428 21.8898 14.832C21.3644 14.0714 21.0248 13.3949 20.8344 12.7098C20.6069 11.9068 20.6154 11.1973 20.8592 10.5333C21.1577 9.72175 21.6003 9.14322 22.2209 8.78047C22.9574 8.34822 23.7397 8.27675 24.6248 8.57066C25.1562 8.75019 25.6354 9.06063 26.0197 9.47419C26.1501 9.6066 26.2805 9.7476 26.4108 9.88197L27.1435 10.6465L27.8429 9.99119C27.9466 9.89454 28.0456 9.80585 28.1408 9.70522C28.5319 9.28091 28.8526 9.01216 29.1876 8.82682C30.0565 8.35219 30.8883 8.2721 31.7297 8.57463C32.2806 8.77319 32.7316 9.14191 33.1078 9.70919C33.5588 10.3903 33.7537 11.0993 33.6944 11.8738C33.6572 12.4238 33.4956 12.9832 33.21 13.5948C32.8628 14.3342 32.3869 15.0445 31.7109 15.8348C31.1305 16.5117 30.5054 17.1478 29.8401 17.7386C29.6894 17.8898 29.6015 18.094 29.5945 18.3091C29.5875 18.5241 29.6618 18.7337 29.8023 18.8948C29.9428 19.0559 30.1388 19.1562 30.3498 19.175C30.5609 19.1939 30.7711 19.1299 30.9372 18.9963C31.6534 18.3547 32.3284 17.6668 32.9578 16.937C33.7231 16.042 34.2947 15.1848 34.7003 14.315C35.0763 13.5167 35.2869 12.7601 35.3416 11.9982C35.4281 10.8546 35.1247 9.71563 34.4819 8.77254C33.9062 7.90672 33.1656 7.30566 32.2806 6.98529C30.9893 6.52194 29.6856 6.64507 28.4028 7.34672C27.9556 7.59679 27.5471 7.91238 27.1904 8.28335C26.6205 7.68485 25.9165 7.23519 25.1385 6.97272C23.8016 6.52722 22.5396 6.64904 21.3892 7.32554C20.4375 7.88885 19.7381 8.77122 19.3078 9.9475C18.9435 10.9437 18.9226 12.028 19.2427 13.1705C19.491 14.0403 19.901 14.877 20.5378 15.7971C21.1747 16.7172 21.9452 17.5843 23.0044 18.5872C28.219 23.4703 32.1822 27.1852 35.625 27.1852C36.1466 27.188 36.6641 27.0973 37.1544 26.9171C37.1631 26.9163 37.1716 26.9136 37.1791 26.9092C37.1953 26.9045 37.2122 26.8966 37.2288 26.8919C39.0656 26.3725 40.6847 25.2565 41.8381 23.7145C42.9919 22.1725 43.6162 20.2893 43.6166 18.3528C43.6234 17.1288 44.1053 15.9569 44.9581 15.0916C45.8106 14.2263 46.965 13.7374 48.1703 13.7312C49.3772 13.7319 50.5347 14.2191 51.3881 15.0858C52.2416 15.9525 52.7213 17.1278 52.7219 18.3535C52.7219 28.3416 44.7188 36.469 34.8834 36.469Z" fill="#FFB128"/>
<path d="M5.625 18.7524C6.14278 18.7524 6.5625 18.3327 6.5625 17.8149C6.5625 17.2972 6.14278 16.8774 5.625 16.8774C5.10722 16.8774 4.6875 17.2972 4.6875 17.8149C4.6875 18.3327 5.10722 18.7524 5.625 18.7524Z" fill="#FFB128"/>
<path d="M47.8125 18.7524C48.3303 18.7524 48.75 18.3327 48.75 17.8149C48.75 17.2972 48.3303 16.8774 47.8125 16.8774C47.2947 16.8774 46.875 17.2972 46.875 17.8149C46.875 18.3327 47.2947 18.7524 47.8125 18.7524Z" fill="#FFB128"/>
</g>
<defs>
<clipPath id="clip0_1_1987">
<rect width="240" height="43.125" fill="white" transform="translate(0 0.00244141)"/>
</clipPath>
</defs>
</svg>
