<svg width="17" height="17" viewBox="0 0 17 17" fill="none" xmlns="http://www.w3.org/2000/svg">
<path d="M15.9612 14.4087C16.2424 14.7212 16.2424 15.1899 15.9299 15.4712L15.0549 16.3462C14.7737 16.6587 14.3049 16.6587 13.9924 16.3462L10.8987 13.2524C10.7424 13.0962 10.6799 12.9087 10.6799 12.7212V12.1899C9.55493 13.0649 8.17993 13.5649 6.67993 13.5649C3.08618 13.5649 0.179932 10.6587 0.179932 7.06494C0.179932 3.50244 3.08618 0.564941 6.67993 0.564941C10.2424 0.564941 13.1799 3.50244 13.1799 7.06494C13.1799 8.59619 12.6487 9.97119 11.8049 11.0649H12.3049C12.4924 11.0649 12.6799 11.1587 12.8362 11.2837L15.9612 14.4087ZM6.67993 11.0649C8.86743 11.0649 10.6799 9.28369 10.6799 7.06494C10.6799 4.87744 8.86743 3.06494 6.67993 3.06494C4.46118 3.06494 2.67993 4.87744 2.67993 7.06494C2.67993 9.28369 4.46118 11.0649 6.67993 11.0649Z" fill="#0B3954"/>
</svg>
