<svg width="22" height="26" viewBox="0 0 22 26" fill="none" xmlns="http://www.w3.org/2000/svg">
<path fill-rule="evenodd" clip-rule="evenodd" d="M2.87288 1.92996C2.21012 1.92996 1.67288 2.46722 1.67288 3.12996V20.2176C1.67288 20.8804 2.21012 21.4176 2.87288 21.4176H9.87988V1.92996H2.87288ZM11.4799 1.92996V21.4176H18.4868C19.1496 21.4176 19.6868 20.8804 19.6868 20.2176V3.12996C19.6868 2.46722 19.1496 1.92996 18.4868 1.92996H11.4799ZM0.072876 3.12996C0.072876 1.58356 1.32648 0.329956 2.87288 0.329956H18.4868C20.0332 0.329956 21.2868 1.58356 21.2868 3.12996V20.2176C21.2868 21.764 20.0332 23.0176 18.4868 23.0176H2.87288C1.32648 23.0176 0.072876 21.764 0.072876 20.2176V3.12996Z" fill="#0B3954"/>
<path fill-rule="evenodd" clip-rule="evenodd" d="M3.82869 21.9781C4.27051 21.9781 4.62869 22.3363 4.62869 22.7781V24.3302C4.62869 24.772 4.27051 25.1302 3.82869 25.1302C3.38685 25.1302 3.02869 24.772 3.02869 24.3302V22.7781C3.02869 22.3363 3.38685 21.9781 3.82869 21.9781Z" fill="#0B3954"/>
<path fill-rule="evenodd" clip-rule="evenodd" d="M4.91365 10.0978C5.35547 10.0978 5.71365 10.4559 5.71365 10.8978V12.4498C5.71365 12.8916 5.35547 13.2498 4.91365 13.2498C4.47181 13.2498 4.11365 12.8916 4.11365 12.4498V10.8978C4.11365 10.4559 4.47181 10.0978 4.91365 10.0978Z" fill="#0B3954"/>
<path fill-rule="evenodd" clip-rule="evenodd" d="M16.2476 10.0978C16.6894 10.0978 17.0476 10.4559 17.0476 10.8978V12.4498C17.0476 12.8916 16.6894 13.2498 16.2476 13.2498C15.8058 13.2498 15.4476 12.8916 15.4476 12.4498V10.8978C15.4476 10.4559 15.8058 10.0978 16.2476 10.0978Z" fill="#0B3954"/>
<path fill-rule="evenodd" clip-rule="evenodd" d="M17.3331 21.9781C17.7749 21.9781 18.1331 22.3363 18.1331 22.7781V24.3302C18.1331 24.772 17.7749 25.1302 17.3331 25.1302C16.8913 25.1302 16.5331 24.772 16.5331 24.3302V22.7781C16.5331 22.3363 16.8913 21.9781 17.3331 21.9781Z" fill="#0B3954"/>
</svg>
