<svg width="26" height="18" viewBox="0 0 26 18" fill="none" xmlns="http://www.w3.org/2000/svg">
<path fill-rule="evenodd" clip-rule="evenodd" d="M3.03 2.58376C2.36724 2.58376 1.83 3.12102 1.83 3.78376L1.82998 17.0236H0.22998L0.23 3.78376C0.23 2.23736 1.4836 0.983765 3.03 0.983765H23.03C24.5764 0.983765 25.83 2.23738 25.83 3.78378V17.0236H24.23V3.78376C24.23 3.12102 23.6928 2.58376 23.03 2.58376H3.03Z" fill="#0B3954"/>
<path fill-rule="evenodd" clip-rule="evenodd" d="M2.89992 2.58376C2.30902 2.58376 1.82998 3.06278 1.82998 3.65368C1.82998 4.2446 2.309 4.72364 2.89992 4.72364H23.16C23.751 4.72364 24.23 4.24462 24.23 3.65372C24.23 3.0628 23.751 2.58376 23.16 2.58376H2.89992ZM0.22998 3.65366C0.23 2.17912 1.42536 0.983765 2.89992 0.983765H23.16C24.6346 0.983765 25.83 2.17916 25.83 3.65372C25.83 5.12828 24.6346 6.32364 23.16 6.32364H2.89992C1.42534 6.32364 0.22996 5.12824 0.22998 3.65366Z" fill="#0B3954"/>
<path fill-rule="evenodd" clip-rule="evenodd" d="M4.1394 17.0236V6.02356H5.6394V17.0236H4.1394Z" fill="#0B3954"/>
<path fill-rule="evenodd" clip-rule="evenodd" d="M20.1394 17.0236V6.02356H21.7394V17.0236H20.1394Z" fill="#0B3954"/>
</svg>
